<?xml version="1.0" encoding="UTF-8"?>
<svg id="Layer_2" xmlns="http://www.w3.org/2000/svg" viewBox="0 0 295 268.04">
  <defs>
    <style>
      .cls-1 {
        fill: #fff;
      }
    </style>
  </defs>
  <g id="Calque_2">
    <g>
      <path class="cls-1" d="M95.56,118.14s-.01-.03-.02-.04c0,0-.02-.02-.03-.02,0,.02.02.04.03.05,0,0,.01,0,.02.01Z"/>
      <path class="cls-1" d="M74.88,176.13c-3.51-4.38-6.55-9.08-9.14-14.01-3.58-6.75-6.32-13.93-8.32-21.33-.67-.17-1.34-.32-2.02-.45-.38-.08-.77-.13-1.15-.2-.08,0-.14-.03-.19-.04-.03-.01-.08-.01-.13-.02h-.03c-.71-.07-1.42-.14-2.13-.18-1.49-.09-2.99-.09-4.48,0-.64.03-1.28.1-1.91.17h-.01c-.1.02-.68.09-.77.1-.32.05-.64.11-.96.17-1.49.29-2.95.66-4.39,1.12-.76.25-1.51.52-2.25.8-.07.03-.13.05-.18.07-.01.01-.02.01-.04.02-.05.02-.11.05-.18.08-.37.16-.73.33-1.1.51-1.34.64-2.64,1.37-3.9,2.18-.69.44-1.37.92-2.04,1.4-.07.05-.12.09-.17.13-.02,0-.04.02-.05.03t-.02.02s-.1.09-.17.14c-.28.23-.56.45-.83.69-1.8,1.53-3.42,3.23-4.91,5.06-.03.04-.06.07-.08.1-.02.02-.03.04-.04.05-.02.02-.03.04-.05.06-.02.03-.05.07-.08.11-.17.24-.34.47-.5.7-.33.47-.65.95-.96,1.43-.61.96-1.17,1.95-1.69,2.97-.28.55-.55,1.11-.81,1.68-.02.05-.06.13-.09.2,0,.02-.01.03-.02.04,0,.03-.02.05-.03.08-.01.02-.02.05-.03.07,0,.03-.02.06-.03.08h0s-.01.03-.01.03c-.04.1-.08.19-.12.29-.38,1-.73,2.01-1.03,3.03-.34,1.18-.63,2.38-.86,3.59-.1.53-.25,1.12-.27,1.66.04-1.31-.05.53-.07.8-.21,2.29-.2,4.59,0,6.87.02.2.03.42.05.63,0,0,0,0,.01.02,0,.04.02.13.05.33.09.56.18,1.11.29,1.66.22,1.11.49,2.21.82,3.3.32,1.08.7,2.15,1.11,3.2,0,0,0,0,.01.03.09.16.41.93.51,1.14.25.52.51,1.04.78,1.55.56,1.03,1.16,2.04,1.8,3.02.33.5.67.98,1.02,1.46.05.07.28.37.39.51.01.01.01.02.01.02.02.02.03.03.04.04,0,0,.01.01.01.02.06.07.11.14.17.21,1.58,1.91,3.34,3.67,5.25,5.24.04.03.11.09.18.16.02.01.03.02.05.03.04.04.07.06.1.07l.03.03h0s.06.05.09.07c.01,0,.02.02.03.03.13.09.26.19.39.28.46.34.94.66,1.42.97.9.6,1.84,1.15,2.79,1.66.6.32,1.21.63,1.82.91.26.12.52.23.77.35,0,0,.01.01.02.01s.02,0,.03,0t.02.01c1.03.39,2.07.78,3.13,1.1,1.12.34,2.26.63,3.42.86.54.11,1.09.21,1.65.3.04,0,.09.01.14.03.04,0,.08,0,.1,0,.18.03.37.04.56.05,2.28.24,4.58.26,6.87.08.33-.03.67-.06,1-.09.04,0,.1,0,.18,0,.54-.02,1.1-.18,1.63-.28,1.05-.2,2.1-.45,3.13-.74,1.16-.32,2.29-.7,3.41-1.13.06-.03.22-.09.37-.15.04-.02.07-.03.11-.05.02,0,.03-.01.05-.01h0s.07-.04.09-.04c.02-.02.04-.02.04-.02.06-.03.11-.06.17-.08.52-.24,1.04-.49,1.56-.75,1.15-.59,2.26-1.23,3.34-1.93.5-.33.99-.66,1.47-1,.17-.13.34-.26.52-.38.01-.01.04-.03.07-.05.05-.05.12-.1.21-.18.75-.59,1.56-1,2.39-1.17,1.36-.28,2.76.05,3.98,1.17.05.05.11.1.16.16,2.81-3.48,5.18-8.4,5.63-15.23-2.59-2.38-5.01-4.97-7.22-7.74ZM52.63,182.18s0-.01,0-.02c.04.05.06.1.05.11,0,0-.04-.09-.04-.1ZM57.68,166.67c-1.95,3.37-5.99,5.41-9.86,4.96-1.37-.16-2.8-.58-4.13-.48-.52.04-1.02.16-1.49.4-1.42.73-2.11,2.41-2.21,4.01s.29,3.17.47,4.76c.18,1.59.12,3.29-.75,4.63-1.43,2.18-4.69,2.58-7.01,1.39-2.32-1.19-3.81-3.57-4.73-6.01-2.18-5.8-1.65-12.56,1.42-17.94,3.07-5.38,8.61-9.28,14.71-10.36.63-.11,1.27-.19,1.91-.23,3.64-.25,8.53.62,10.97,3.66,2.46,3.07,2.65,7.86.71,11.21Z"/>
      <path class="cls-1" d="M95.51,118.07s-.11-.08-.19-.13c.08.08.16.14.21.18,0-.02-.01-.03-.02-.05Z"/>
      <path class="cls-1" d="M95.19,117.21s-.01,0-.02,0c.13.35.23.59.29.75.03.04.05.08.07.12-.13-.29-.24-.58-.35-.88Z"/>
      <path class="cls-1" d="M95.55,118.1s.02.04.03.05c.04.02.04,0-.03-.05Z"/>
      <path class="cls-1" d="M95.48,118.01s.01.03.02.05c0,0,0,0,0,0,0-.02-.02-.04-.03-.06Z"/>
      <path class="cls-1" d="M114.24,140.89c1.43,1.72,2.98,3.34,4.64,4.83.45.4.9.79,1.36,1.18.21.17.42.33.63.51.05.03.09.07.14.11.79.57,1.58,1.15,2.4,1.7,1.93,1.26,3.95,2.39,6.04,3.35.2.09.4.2.61.29.01,0,.03,0,.04,0,.03.01.07.03.1.04.52.2,1.03.41,1.56.6,1.04.38,2.11.73,3.18,1.03,1.19.34,2.4.63,3.61.87.5.1,1.01.19,1.51.27.18.03.37.07.56.1.04.01.07.01.11.01.06,0,.12,0,.18.02,2.37.25,4.75.37,7.14.28,1.15-.04,2.31-.13,3.46-.26.05,0,.1,0,.16-.02.02-.02.59-.08.68-.1.56-.09,1.12-.19,1.68-.3,2.25-.44,4.48-1.06,6.64-1.84.56-.21,1.12-.43,1.68-.65.01,0,.02-.01.03-.01.04-.02.09-.04.14-.07.2-.09.41-.18.61-.27,1-.46,1.98-.95,2.94-1.49,1.93-1.05,3.75-2.26,5.51-3.57.04-.03.08-.06.11-.09.02-.01.03-.02.05-.03.01,0,.02,0,.03-.03.03-.02.04-.03.05-.04h.02s.08-.08.12-.11c.17-.14.34-.28.5-.42.42-.35.83-.71,1.24-1.07.81-.73,1.59-1.49,2.35-2.27.76-.78,1.49-1.6,2.19-2.43.2-.24.39-.48.59-.72,0,0,.02-.03.03-.04.01,0,.02,0,.02-.02.03-.04.05-.07.08-.11.26-.35.52-.7.77-1.05,1.31-1.83,2.47-3.76,3.49-5.76.28-.54.54-1.09.8-1.64.06-.14.13-.28.21-.42,0,0,0,0,.01-.02h0s.01-.03.02-.04t0-.02s.01-.03.02-.05c.01-.05.04-.11.07-.2.42-1.03.81-2.07,1.15-3.13.7-2.14,1.23-4.34,1.6-6.56.01-.05.06-.34.1-.59v-.04s.01-.06.02-.09c0-.05.01-.08.01-.09v-.02c.02-.17.04-.33.04-.35.07-.57.12-1.15.17-1.72.08-1.16.12-2.33.13-3.5-.01-1.16-.04-2.33-.13-3.49-.05-.58-.1-1.15-.17-1.72,0-.04-.01-.1-.01-.17-.01-.21-.07-.47-.1-.68-.37-2.28-.9-4.53-1.61-6.73-.36-1.11-.77-2.21-1.2-3.29-.02-.05-.03-.09-.05-.12,0-.01,0-.02-.01-.03-.1-.19-.18-.4-.27-.6-.23-.5-.47-1-.72-1.49-.99-1.96-2.12-3.85-3.38-5.64-.29-.42-.59-.84-.91-1.25-.01,0-.64-.8-.77-.96-.7-.84-1.43-1.65-2.19-2.43-.76-.79-1.54-1.54-2.35-2.27-.41-.37-.82-.72-1.24-1.07-.1-.09-.64-.51-.86-.7t-.02-.02s-.02-.02-.03-.02c-.01-.02-.02-.02-.03-.03-.01-.01-.02-.01-.02-.01-1.68-1.26-3.44-2.41-5.28-3.44-1.01-.56-2.04-1.08-3.09-1.56-.25-.12-.51-.22-.75-.34h-.01s-.04-.02-.06-.03c-.5-.19-.98-.39-1.49-.57-2.1-.77-4.26-1.38-6.46-1.84-.67-.13-1.34-.26-2.01-.36-.21-.04-.46-.1-.68-.11-.07,0-.13,0-.16-.01-1.1-.12-2.19-.21-3.29-.25-2.38-.1-4.78-.02-7.15.25-.16.02-.3.03-.41.03-.01.01-.02.01-.03,0-.25.04-.5.1-.74.14-.5.09-1,.18-1.51.28-1.04.21-2.09.46-3.12.74-1.18.33-2.35.71-3.5,1.13-.49.18-.96.36-1.44.55-.04.02-.08.03-.12.05-.04.02-.08.03-.11.04-.03,0-.05.01-.08.03-.01.01-.02.01-.03.01s-.02.01-.03.01c-.17.08-.34.17-.5.25-1.99.92-3.92,1.98-5.77,3.17-.92.6-1.81,1.22-2.67,1.88,0,0-.01,0-.01.01-.03.03-.07.06-.12.1-.26.2-.51.41-.76.62-.38.31-.75.63-1.12.96-1.66,1.49-3.22,3.1-4.66,4.81-.21.25-.41.51-.62.76-.04.05-.07.09-.1.12-.29.4-.59.79-.87,1.19-.6.85-1.17,1.72-1.71,2.61-.63,1.03-1.22,2.09-1.76,3.17-.25.49-.49.99-.72,1.49-.09.2-.18.4-.27.6-.03.06-.05.11-.07.15-.82,2.08-1.53,4.19-2.06,6.36-.3,1.21-.54,2.43-.74,3.66-.01.1-.07.67-.1.68,0,.05-.01.11-.02.17-.05.51-.1,1.03-.14,1.55-.19,2.38-.2,4.78-.02,7.16.05.63.11,1.26.18,1.89,0,.04,0,.09.01.13,0,.03,0,.05,0,.08.02.21.07.43.11.63.17,1.07.38,2.12.63,3.17.54,2.28,1.27,4.49,2.13,6.66,0,.03.04.08.06.15,0,.01,0,.02.02.03.09.2.18.4.27.6.23.5.47,1,.72,1.49.5.98,1.03,1.94,1.59,2.89.62,1.03,1.28,2.04,1.98,3.02.25.35.51.7.76,1.05.03.04.07.08.11.13h0c.18.22.34.42.52.63ZM150.75,90.5c10.79-2.82,22.05,4.43,25.12,16.2,3.08,11.77-3.16,23.61-13.96,26.43-10.79,2.82-22.05-4.43-25.13-16.2-3.08-11.76,3.17-23.6,13.97-26.43Z"/>
      <path class="cls-1" d="M83.55,42.6c-.03-.05-.06-.1-.1-.15-.01-.02-.02-.03-.04-.04.05.06.1.12.14.19Z"/>
      <path class="cls-1" d="M78.82,101.58c6.99-1.89,13.97-3.79,20.96-5.68,0,0,0,0,0,0,1.96-4.78,4.64-9.27,7.99-13.34,13.14-15.94,36.04-22.16,55.45-15.06,9.74,3.56,18.03,9.9,24.09,18.3,4.98,6.88,8,15.09,8.94,23.5.45-9.09,3.19-18.02,8.44-25.62,5.37-7.76,12.87-13.7,21.84-16.72,6-2.02,12.33-2.5,18.51-1.65-.43-.6-.85-1.22-1.29-1.81-.43-.58-.86-1.16-1.3-1.73-.02-.03-.04-.05-.05-.07-.03-.04-.07-.09-.13-.16-.15-.19-.3-.38-.45-.57-.82-1.04-1.66-2.06-2.52-3.06-3.49-4.11-7.25-7.98-11.26-11.59-2.04-1.84-4.15-3.61-6.31-5.31-.15-.11-.34-.27-.44-.34-.21-.16-.42-.32-.64-.48-.53-.4-1.05-.79-1.59-1.17-1.02-.74-2.04-1.46-3.08-2.17-4.45-3.03-9.1-5.76-13.92-8.18-1.29-.64-2.59-1.27-3.89-1.86-.66-.3-1.31-.59-1.97-.88-.22-.1-.44-.19-.66-.29-.05-.02-.09-.04-.13-.06-.04-.02-.08-.03-.13-.05-2.51-1.02-5.04-1.99-7.61-2.86-5.23-1.77-10.59-3.17-16.01-4.2-1.32-.25-2.65-.48-3.98-.69-.61-.1-1.23-.18-1.84-.27-.15-.02-1.14-.14-1.34-.17-2.83-.33-5.67-.56-8.51-.69-5.66-.26-11.34-.12-16.98.42-1.35.13-2.69.28-4.03.45-.2.03-.44.06-.51.07-.35.05-.71.1-1.06.16-.59.09-1.18.18-1.76.28-2.67.44-5.34.98-7.97,1.6-5.07,1.2-10.07,2.72-14.94,4.56-1.19.45-2.38.93-3.56,1.41-.23.1-.89.38-1.08.46-.52.23-1.04.46-1.56.69-2.37,1.08-4.71,2.23-7,3.46-4.45,2.38-8.75,5.05-12.86,7.98-.45.32-.88.65-1.33.98.39.75.82,1.48,1.29,2.19.19.29.41.56.6.85-.05-.06-.09-.1-.11-.12.03.04.09.12.22.28,0-.02-.01-.04-.03-.06.04.05.07.1.11.15.11.13.22.27.34.4.59.68,1.21,1.33,1.87,1.94.34.31.68.61,1.04.9.07.06.14.12.22.18,1.28.91,2.6,1.74,4.01,2.43.33.16.66.31.99.47.03.01.06.02.08.03.61.24,1.23.46,1.85.66,1.05.33,2.12.62,3.21.84.4.08.8.15,1.2.21.25.03.5.06.75.07,2.52.17,4.39,1.92,4.5,4.5.11,2.36-2.14,4.6-4.5,4.5-1.31-.09-2.65-.01-3.95.11-.29.03-.57.06-.86.09-.61.1-1.22.19-1.82.31-1.53.3-3.05.69-4.53,1.17-.83.27-1.64.58-2.45.89-.17.07-.34.15-.5.22-.39.18-.77.36-1.15.55-1.83.92-3.57,2-5.22,3.21-.03.01-.03.02-.05.03-.18.15-.36.29-.53.43-.38.32-.76.64-1.12.97-.89.8-1.73,1.65-2.53,2.53-.41.46-.82.93-1.21,1.41-.03.04-.06.08-.09.13.03-.05.05-.08.08-.14-.16.26-.36.49-.54.73-.77,1.06-1.48,2.16-2.14,3.28-.7,1.21-1.35,2.46-1.93,3.73-.04.08-.16.34-.25.55,0,.01,0,.02,0,.03-.05.15-.26.62-.31.75-.28.7-.54,1.4-.78,2.11-1.12,3.26-1.9,6.62-2.46,10.02-.16.94-.68,1.7-1.38,2.24-.71.54-1.6.87-2.5.98-.26.03-.51.04-.77.03-.1,0-.21-.01-.31-.02-.12-.01-.23-.02-.34-.04s-.22-.02-.32-.04c-2.47-.57-3.63-3.24-3.15-5.54.25-1.14.47-2.29.66-3.45.09-.49.16-.98.24-1.47,0-.05.01-.09.02-.13.02-.21.05-.42.07-.63.22-1.88.36-3.76.4-5.64.03-1.68-.03-3.36-.18-5.02-.03-.34-.08-.68-.11-1.03-.02-.11-.03-.22-.05-.33-.11-.71-.25-1.42-.41-2.13-.26-1.16-.59-2.31-.98-3.43-.11-.32-.23-.64-.35-.96-.01-.01-.01-.02-.02-.03,0-.02-.01-.03-.02-.05-.75,1.08-1.49,2.17-2.21,3.27-2.72,4.18-5.18,8.53-7.36,13.01-.58,1.2-1.15,2.41-1.69,3.62-.23.51-.45,1.02-.67,1.53-.08.19-.52,1.25-.07.15-.13.31-.26.62-.38.93-.93,2.27-1.78,4.57-2.57,6.9-1.64,4.84-2.96,9.78-3.97,14.79-.2,1.02-.39,2.04-.56,3.07,1.67-.45,3.34-.91,5.01-1.36,12.71-3.45,25.42-6.89,38.13-10.34ZM73,71.62c-.48.74-.22.3,0,0h0Z"/>
      <path class="cls-1" d="M154.11,113.42c4.79,0,8.66-3.31,8.66-7.4s-3.87-7.4-8.66-7.4-8.66,3.31-8.66,7.4,3.87,7.4,8.66,7.4Z"/>
      <path class="cls-1" d="M165.96,121.35c2.06,0,3.72-1.67,3.72-3.73s-1.66-3.72-3.72-3.72-3.73,1.67-3.73,3.72,1.67,3.73,3.73,3.73Z"/>
      <path class="cls-1" d="M95.54,118.12s0,0-.01,0c.08.18.07.14.01,0Z"/>
      <path class="cls-1" d="M218.49,156.36c.39,3.24.38,6.58-.41,9.67,5.01,2.2,9.46,5.71,12.09,10.61.56,1.03,1.06,2.13,1.47,3.28.47-.14.95-.29,1.42-.44.93-.29,1.84-.62,2.75-.97.34-.12.68-.26,1.02-.41.23-.1.69-.3.83-.36,2.71-1.25,5.24-2.79,7.67-4.53.04-.03.07-.05.1-.07.01,0,.02-.02.04-.03.04-.02.06-.04.07-.05.05-.05.11-.09.16-.13.24-.2.49-.4.73-.61.51-.44,1.02-.89,1.51-1.36.96-.9,1.87-1.86,2.72-2.86.23-.26.45-.53.67-.8.03-.04.07-.09.11-.13.01-.01.01-.02.02-.03.33-.47.68-.92,1-1.39.47-.69.92-1.39,1.34-2.1-1.99.48-4.01.79-6.05.99-10.56,1.05-20.8-2.28-29.26-8.28Z"/>
      <path class="cls-1" d="M248.19,101.16c-4.79,0-8.66,3.3-8.66,7.4s3.87,7.4,8.66,7.4,8.66-3.31,8.66-7.4-3.87-7.4-8.66-7.4Z"/>
      <path class="cls-1" d="M258.96,117.04c-1.99.52-3.18,2.55-2.66,4.55.52,2,2.56,3.19,4.56,2.66,1.99-.52,3.18-2.55,2.66-4.54-.52-1.99-2.56-3.19-4.56-2.66Z"/>
      <path class="cls-1" d="M278.15,111.76c0-.08-.02-.16-.03-.25,0,0,0-.02-.01-.04,0-.06-.01-.12-.02-.19-.02-.13-.05-.27-.06-.36-.09-.56-.18-1.11-.29-1.67-.43-2.3-1.03-4.58-1.77-6.81-.35-1.04-.73-2.07-1.14-3.08,0,0-.01-.02-.03-.07,0-.01-.01-.02-.02-.03-.12-.25-.42-.95-.47-1.07-.25-.53-.5-1.05-.77-1.57-1.03-2.05-2.21-4.02-3.52-5.9-.28-.4-.57-.79-.85-1.18-.01-.01-.03-.04-.05-.07-.03-.04-.08-.11-.12-.16-.03-.04-.05-.07-.07-.09-.19-.24-.39-.49-.58-.73-.67-.8-1.36-1.59-2.08-2.36-1.51-1.59-3.13-3.05-4.83-4.44-.04-.03-.07-.06-.1-.08t-.02-.01s0-.01-.01-.01c-.02-.02-.06-.04-.1-.07-.19-.14-.38-.29-.58-.43-.48-.34-.97-.68-1.47-1.01-.9-.6-1.82-1.16-2.77-1.69-1.2-.67-2.43-1.29-3.69-1.83,0,0,0-.01-.01-.01h-.01c-.19-.07-.9-.35-1.07-.41-.6-.22-1.2-.43-1.81-.62-1.29-.41-2.6-.75-3.92-1.03-.55-.11-1.11-.21-1.67-.31-.04-.01-.08-.01-.12-.02-.02,0-.04-.01-.05-.01-.02,0-.03-.01-.05-.01h-.03s-.04-.01-.06-.01c-.27-.03-.54-.06-.81-.08-2.59-.26-5.12-.13-7.7.05-.06.01-.1.01-.14.01-.02.01-.03.01-.05.01-.11.02-.22.03-.34.05-.36.06-.71.12-1.07.19-.58.11-1.15.23-1.72.37-1.06.25-2.11.56-3.14.91-.54.18-1.07.37-1.59.57-.05.02-.1.04-.15.06h.02s-.02.01-.03.01c-.02.01-.04.02-.08.03-.04.01-.08.03-.12.05-.04.01-.08.03-.11.04,0,0-.01.01-.03.01-.9.42-1.79.85-2.66,1.32-.87.47-1.73.98-2.56,1.52-.41.27-.82.55-1.22.84-.17.12-.85.66-.87.66-1.41,1.17-2.78,2.38-4.03,3.73-.72.77-1.35,1.61-2.05,2.38-.13.18-.27.36-.41.55-.26.35-.51.72-.76,1.09-1.14,1.66-2.15,3.41-3.04,5.22-.25.51-.47,1.03-.71,1.54-.02.05-.05.09-.07.13,0,.01,0,.02-.01.03-.06.16-.13.33-.2.49-.35.91-.68,1.82-.98,2.75-.66,2.04-1.18,4.13-1.55,6.25-.06.29-.1.58-.15.87,0,.01-.02.09-.04.2v.03s0,.02,0,.03h0v.06s-.01.02-.01.04c0,.01,0,.03-.01.04.01.01,0,.02,0,.03v.02s-.01.02-.01.04v.05s0,.03-.01.05c0,.03,0,.05-.01.08h0c0,.13-.03.23-.03.24-.02.23-.05.47-.07.71-.1,1.01-.17,2.02-.21,3.04-.08,2.19-.01,4.38.2,6.57.04.36.07.73.12,1.1,0,.04.01.1.02.16,0,.02.01.04.01.06,0,.04.01.08.01.11,0,0,0,.02,0,.02v.03s.01.04.01.06c0,.03.01.05.01.07.05.36.11.72.17,1.07.2,1.13.43,2.24.7,3.35.16.67.34,1.34.54,2.01.55,1.03,1.09,2.07,1.62,3.11,1.83,3.55,3.57,7.2,5.09,10.93.19.27.38.54.57.8.12.16.23.31.34.47.03.03.05.06.07.09.02.04.06.08.1.12.02.02.03.04.05.06.32.4.65.8.98,1.19.63.74,1.28,1.45,1.95,2.15,1.41,1.45,2.92,2.79,4.48,4.07,0,0,.02.02.03.02h.01s.05.05.08.08c0,0,0,.01.02.01.02,0,.04.03.06.05.16.11.32.22.48.34.4.29.81.57,1.22.85.77.52,1.56,1.02,2.36,1.49.94.55,1.9,1.07,2.88,1.54.39.19.78.37,1.18.55.11.05.23.11.34.16.03.02.06.03.09.03,0,0,.02.01.03.02.01.01.02.01.04.01.03,0,.05,0,.07.02,1.8.7,3.63,1.3,5.52,1.75.99.23,1.99.41,2.99.58.04,0,.08.02.12.03h.01c.09,0,.19,0,.27.02.48.06.96.1,1.44.13,1.99.15,3.99.13,5.97-.05.25-.02.5-.05.75-.07.02-.01.04-.01.06-.01.09-.01.19-.01.29-.01h.04c.31-.04.62-.13.91-.19.98-.18,1.95-.4,2.92-.65.98-.27,1.96-.57,2.92-.91.48-.17.95-.36,1.42-.54h.01s.03-.01.04-.02c.03-.01.05-.02.06-.02.17-.09.33-.16.5-.24,1.81-.84,3.54-1.82,5.19-2.94.45-.31.9-.63,1.34-.95.02,0,.04-.03.06-.04.02-.02.04-.04.07-.06.01-.01.02-.02.04-.03.11-.1.23-.19.35-.29.72-.59,1.42-1.21,2.09-1.85.76-.72,1.49-1.47,2.18-2.25.33-.37.66-.75.98-1.13.14-.16.38-.47.5-.62.02-.02.04-.04.05-.06t.02-.02c1.12-1.5,2.14-3.08,3.06-4.71.55-.98,1.06-1.98,1.53-3.01.07-.16.29-.66.37-.82t.01-.02v-.02c.13-.29.25-.59.36-.89.76-1.99,1.38-4.03,1.86-6.11.25-1.08.46-2.18.64-3.27.01-.05.01-.1.02-.15,0-.02,0-.04.01-.05v-.03s0-.03.01-.06c0-.02,0-.04,0-.07,0,0,0,.02,0,.03,0-.02,0-.04.01-.07v-.05s.01-.04.01-.06,0-.04.01-.05h0v-.03s.01-.07.02-.11c.05-.48.1-.97.15-1.46.19-2.22.23-4.46.12-6.69-.05-1.1-.14-2.21-.26-3.31ZM260.13,132.77c-9.69,4.48-21.65-.77-26.71-11.71-5.06-10.95-1.3-23.46,8.39-27.93,9.7-4.49,21.65.76,26.72,11.7,5.06,10.95,1.3,23.46-8.4,27.94Z"/>
      <path class="cls-1" d="M288.75,144.11c6.55-12.98,8.01-28.2,4.1-42.88-4.04-15.15-13.25-27.87-25.93-35.81-1.06-.66-2.15-1.29-3.25-1.88C239.69,24.31,196.48,0,150.49,0c-6.28,0-12.63.45-18.89,1.34-15.86,2.26-30.83,7.21-44.67,14.75.1-.52.2-1.04.32-1.57.67-3.14.08-6.35-1.67-9.04-1.75-2.69-4.43-4.55-7.57-5.22-.61-.13-1.23-.21-1.93-.25-.04,0-.08,0-.12,0-.16,0-.32,0-.48,0h-.17c-.28,0-.55.02-.85.04-5.54.43-10.03,4.57-10.92,10.05-1.9,11.77-6.84,19.72-14.69,23.64-5.03,2.52-9.84,2.71-11.19,2.71-.12,0-.21,0-.26,0h-.2c-.17-.02-.34-.02-.51-.02-6.37,0-11.63,4.98-11.98,11.35-.36,6.52,4.64,12.19,11.25,12.66h.04s1.12.1,2.66.53c-14.15,22-21.56,47.94-21.11,74.06-20.5,17.3-23.52,48.01-6.6,69,9.45,11.71,23.53,18.43,38.63,18.43.99,0,1.99-.03,2.99-.09.54,1.09,1.15,2.15,1.84,3.17,3.82,5.64,9.73,9.89,16.62,11.97.98.3,1.96.55,2.95.75,4.74,7.68,13.16,13.89,23.15,16.91,4.37,1.32,8.8,1.99,13.18,1.99,2.64,0,5.21-.25,7.69-.73,9.54,7.42,23.44,11.62,38.74,11.62,2.17,0,4.38-.09,6.57-.26,17.49-1.38,33.1-8.03,42.6-18.01,1.25.15,2.52.22,3.81.22h0c10.12,0,21.02-4.48,29.9-12.31,7.58-6.69,12.98-15.2,15.17-23.79,8.87-4.04,16.46-12.86,20.72-24.27,3.91-10.42,4.28-21.15,1.18-29.73,4.9-4.34,8.93-9.63,12.04-15.78ZM267.25,157.65c1.93,2.75,3.08,6.09,3.57,9.33,1.51,10.02-1.29,20.76-6.99,29.1-3.67,5.37-9.11,10.67-15.62,12.22-.41,3.55-1.57,7.02-3.1,10.24-4.17,8.77-12,16.26-20.77,20.36-6.53,3.06-14.3,4.74-21.28,2.63-2.97,4.01-6.95,7.29-11.18,9.87-11.72,7.16-26.37,9.9-39.96,8.97-7.05-.49-13.93-1.95-20.43-4.73-4.22-1.8-8.32-4.26-11.6-7.52-2.9.96-5.93,1.44-9.04,1.5-7.62.14-15.63-2.21-21.89-6.57-4.25-2.96-8.09-6.92-10.11-11.73-5.97-.36-11.93-2.97-16.02-7.3-2.63-2.79-4.48-6.27-5.1-9.97-5.41,1.1-11.06,1.14-16.69.02-10.84-2.14-20.38-8.82-26.53-17.92-6.2-9.18-8.25-20.63-6.21-31.44,1.99-10.51,8.26-19.86,16.89-26.08-.02-.41-.03-.81-.05-1.22-.15-3.76-.12-7.53.08-11.29.82-15.15,4.42-29.94,10.49-43.83,3.7-8.47,8.39-16.51,13.9-23.95-.2-.17-.39-.35-.58-.51-.07-.06-.15-.12-.22-.18-1.28-.91-2.6-1.73-4.01-2.43-.33-.16-.67-.31-1-.46-.02-.01-.05-.02-.08-.03-.61-.24-1.22-.46-1.85-.66-1.05-.34-2.12-.62-3.2-.84-.4-.08-.8-.15-1.2-.22-.26-.02-.51-.05-.76-.06-2.52-.18-4.38-1.93-4.5-4.5-.1-2.36,2.15-4.6,4.5-4.5,1.31.09,2.65,0,3.96-.12.28-.03.57-.06.85-.09.61-.1,1.22-.19,1.83-.31,1.53-.3,3.04-.69,4.53-1.17.83-.27,1.64-.57,2.45-.89.16-.07.33-.14.5-.22.38-.18.76-.36,1.14-.55,1.84-.92,3.57-2,5.23-3.21.02-.01.03-.01.04-.03.18-.14.36-.28.54-.43.38-.32.75-.64,1.12-.97.88-.8,1.72-1.64,2.52-2.53.42-.46.82-.93,1.21-1.41.03-.04.06-.08.1-.12.01-.02.03-.05.05-.07.13-.18.28-.35.4-.53.77-1.06,1.48-2.15,2.14-3.28.71-1.21,1.35-2.46,1.94-3.73.03-.08.15-.34.24-.55.02-.03.03-.06.04-.09-.01.03-.02.04-.03.06.05-.14.27-.62.32-.75.27-.7.53-1.4.77-2.11,1.12-3.26,1.91-6.62,2.47-10.02.31-1.88,2.09-3,3.87-3.22h.01c.25-.03.51-.04.76-.03.11,0,.21.01.32.02.11.01.22.03.33.04.11.02.22.02.33.05,2.47.56,3.63,3.24,3.14,5.53-.24,1.15-.46,2.3-.66,3.45-.08.49-.15.98-.23,1.47-.01.05-.02.1-.02.14-.03.21-.05.42-.08.63-.22,1.87-.36,3.75-.39,5.64-.03,1.67.02,3.35.18,5.02.01.15.03.31.04.46,5.26-3.68,10.81-6.94,16.57-9.74,14.22-6.91,29.55-11.05,45.3-12.35,16.12-1.33,32.59.58,47.98,5.54,15.28,4.93,29.43,12.76,41.81,22.96,11.15,9.18,20.66,20.4,27.99,32.85.69.33,1.37.67,2.04,1.03,18.14,9.78,28.7,31.11,26.92,51.45-.83,9.4-3.97,18.62-9.75,26.13-2.93,3.81-6.39,7.12-10.29,9.76Z"/>
      <path class="cls-1" d="M209.49,156.65c-.02-.08-.03-.17-.04-.25-.07-.4-.14-.79-.21-1.18-.16-.84-.34-1.67-.54-2.49-.41-1.71-.9-3.41-1.46-5.08-.48-1.46-1.01-2.91-1.57-4.34-.1-.27-.21-.55-.32-.82-.13-.35-.27-.68-.41-1.02-.02-.05-.05-.11-.08-.17-.01-.04-.02-.07-.04-.11-.07-.17-.11-.26-.12-.29h-.01v-.02c-.35-.81-.7-1.61-1.07-2.41-1.36-2.96-2.82-5.87-4.37-8.74-.19-.35-.38-.69-.57-1.04-.82-1.49-1.65-2.98-2.53-4.45-.12-.21-.25-.42-.37-.63-.19,1.17-.43,2.33-.72,3.48,0,.01,0,.02-.01.03v.02c-.93,3.81-2.34,7.48-4.17,10.92,0,0-.01,0-.01.02h0s-.01.03-.02.04c-6.94,13.12-19.7,23.05-34.43,25.97-10.58,2.09-21.39.82-31.21-3.61-9.06-4.09-16.79-11.13-21.94-19.6-4.01-6.58-6.44-14.14-7.08-21.84,0,0,0-.02,0-.02-.15-.15-.28-.31-.4-.49-.01.03-.29-.33-.5-.6-.02-.01-.03-.02-.05-.03-.32-.2-.66-.39-1-.55-.05-.03-.22-.1-.34-.16,0,0,0,0,0,0-.55-.19-1.09-.38-1.65-.55-4.81-1.39-10.46-1.5-15.21-.66-2.91.52-5.79,1.35-8.66,2.08-4.71,1.2-9.41,2.39-14.12,3.59-6.68,1.7-13.37,3.4-20.05,5.1-.11,2.35-.16,4.69-.13,7.04,8.94-3.51,19.06-3.88,28.24-.96.08.02.15.05.22.08.12.04.23.09.34.14.1.04.2.09.3.14.09.04.17.09.26.15.09.05.17.11.25.17.1.07.2.14.29.22.72.57,1.27,1.36,1.49,2.25.92,3.73,2.02,7.42,3.33,11.03.32.9.66,1.79,1.01,2.68.17.42.33.83.5,1.25.01.01.04.08.08.18,0,.02.02.03.02.05.03.05.05.1.07.15,0,.02.01.04.02.05.03.07.05.12.06.14h0s.01.02.01.03c.73,1.67,1.49,3.33,2.32,4.96,1.44,2.84,3.03,5.61,4.77,8.27.88,1.34,1.79,2.64,2.74,3.92.07.1.15.19.21.28.02.02.04.04.05.06.05.05.09.11.13.16.01.01.01.02.02.03.02.02.04.05.05.07.17.2.33.41.49.61.46.57.92,1.14,1.4,1.7,2.03,2.37,4.21,4.61,6.53,6.69.58.51,1.17,1.02,1.76,1.52.28.23.56.46.84.69.06.04.19.15.32.25h.01s0,.01,0,.01c.01.02.02.02.02.02t.02.02s.05.04.07.05c.02.02.03.03.04.04t-.02-.03s.03.03.05.05c.01,0,.03.02.04.04-.01-.01-.02-.02-.03-.04.02.02.03.03.05.05,0,0,0,.01,0,.01.01,0,.01,0,.02,0s.01,0,.01.01c.01.02.02.02.03.02.07.05.12.1.15.12.17.12.34.24.5.37.25.18.5.36.76.54.63.45,1.27.89,1.91,1.32,2.57,1.7,5.25,3.21,8.04,4.52.38.17.76.35,1.14.52.1.05.38.19.59.29-.05-.03-.12-.07-.2-.11.64.34,1.39.56,2.07.82,1.46.55,2.94,1.04,4.44,1.48,3.15.93,6.35,1.61,9.59,2.09.06,0,.13.02.19.03.17.02.33.04.5.06.4.05.8.09,1.2.13.82.08,1.63.15,2.45.21.77.05,1.54.09,2.31.12.09-.27.18-.54.28-.81,1.82-4.96,4.24-9.67,7.89-13.54,3.25-3.43,7.28-5.78,11.63-7.52,4.26-1.7,8.79-2.63,13.28-3.44,5.74-1.02,11.52-1.83,17.26-2.84.02,0,.05,0,.07,0-.43-1.49-.7-3.05-.84-4.66-.2-2.51,2.23-4.4,4.5-4.5.58-.03,1.12.07,1.61.27,1.67.65,2.74,2.42,2.89,4.23.01.07.01.2.01.33t.01.02c.06.32.11.64.17.96.13.6.29,1.19.48,1.77.01.04.03.07.04.11.02.05.04.1.06.15h0c.1.19.17.44.25.6.23.47.5.91.78,1.35.02.02.09.11.16.2.02.03.05.06.07.09,0,0,0,.02.02.03.08.1.16.2.25.29.32.34.65.65.99.96.07.06.18.13.26.2t.02.02s.08.05.12.08c.03.02.05.04.08.05.32.22.66.43,1,.61.27.15.6.26.88.42-.12-.05-.24-.08-.3-.09.04.02.12.05.23.09.07.02.13.04.19.06.01.01.03.01.04.02.01.01.02.01.02.01.09.03.18.07.28.1.66.23,1.35.42,2.04.56.25.06.51.1.77.15.68.05,1.34.08,2.02.1,1.06.03,2.11.01,3.17-.07.26-.03.53-.06.79-.08h.02c.32-.06.65-.11.97-.18.8-.17,1.59-.4,2.36-.67-.07.03-.14.07-.2.11.07-.05.15-.09.24-.12h-.03c.07-.03.13-.06.19-.08-.03.02-.06.03-.09.05.17-.06.26-.09.3-.12-.02,0-.03,0-.05,0,.29-.14.56-.29.83-.46.26-.15.5-.34.76-.51.04-.02.07-.06.11-.09t.02-.02c.25-.22.49-.46.71-.7.03-.03.06-.07.1-.11.29-.52.67-.99.94-1.53.03-.07.06-.14.09-.22.01,0,.01-.02.01-.03.07-.22.16-.43.22-.65.1-.33.18-.66.26-.99.07-.33.13-.67.2-1.01.01-.02.01-.04.01-.06.03-.35.06-.7.07-1.05.08-1.52-.01-3.04-.17-4.55-.01-.05-.02-.1-.02-.15Z"/>
      <path class="cls-1" d="M209.38,198.97s-.01-.09-.02-.13l-.15-.75c-.1-.48-.22-.96-.36-1.43-.12-.41-.3-.81-.44-1.21-.08-.18-.17-.35-.27-.53-.19-.34-.42-.65-.63-.98-.12-.14-.24-.27-.36-.4-.18-.19-.37-.36-.56-.54h0c-.33-.19-.47-.29-.5-.33,0-.01.02,0,.05,0-.17-.12-.33-.23-.5-.33-.26-.16-.56-.28-.84-.41.11.1.02.09-.51-.26,0,0-.02,0-.03,0-.25-.09-.49-.17-.74-.25-.61-.19-1.23-.35-1.86-.48-.32-.07-.63-.13-.95-.19-.08-.01-.38-.06-.6-.09h-.03c-.24-.03-.53-.06-.63-.07-.37-.04-.75-.07-1.12-.09-.8-.05-1.6-.08-2.4-.09-1.82-.03-3.65.04-5.47.17-1.16.08-2.32.19-3.49.31-.55.06-1.1.12-1.65.19-.28.03-.56.07-.84.1-.04.01-.11.02-.18.03-.05,0-.09,0-.14.02-.09,0-.13.02-.13.02-3.09.43-6.17.85-9.23,1.42-2.48.46-4.92,1.05-7.28,1.92-.01,0-.01.01-.02.01s-.02,0-.03,0c-.21.11-.44.21-.65.32-.46.23-.9.48-1.34.75-.22.14-.43.29-.65.43-.3.29-.63.54-.92.83-.34.34-.63.76-.97,1.11-.01.02-.02.03-.03.05-.14.2-.26.39-.39.59-.31.51-.6,1.03-.86,1.56-.11.24-.22.47-.33.71,0,.02-.01.03-.02.05h0s-.01.03-.01.04h-.01c-1.06,2.93-1.71,5.95-2.16,9.03,0,.03-.01.1-.02.18,0,.01-.01.03-.01.04v.04s0,.02,0,.04-.01.05-.01.07v.02s-.01.06-.01.09c-.01.02-.01.03-.01.05v.03s-.01.04-.01.05c-.01.04-.01.06-.01.06v.02c-.06.48-.12.96-.17,1.44-.07.63-.14,1.27-.18,1.91-.08,1.02-.1,2.05-.04,3.07,0,.19.02.38.04.56.06.31.12.62.2.93.04.16.09.32.14.47h0s.04.09.1.29c.01.04.02.08.04.12t.01.02c.06.12.12.26.19.38.06.1.12.21.19.31.22.21.42.5.64.71.03.03.07.06.12.1,0,.01.01.01.02.02.02.02.04.03.05.04.33.22.69.42,1.04.6.77.24.73.26.49.2.47.16.94.3,1.43.42.51.13,1.01.23,1.53.33.23-.05.66.08.89.1,3.14.3,6.31.18,9.44-.08,1-.08,1.99-.18,2.99-.29.5-.05.99-.11,1.49-.17.21-.03.43-.06.65-.08.04-.01.07-.02.11-.02h.07s.01,0,.02-.01h.05s.06,0,.06,0c2.28-.32,4.55-.68,6.82-1.08,1.72-.3,3.44-.6,5.15-.92,2.98-.56,5.97-1.16,8.85-2.13.38-.13.75-.28,1.13-.41.04-.01.07-.03.11-.05.46-.22.93-.43,1.38-.68.53-.29,1.04-.62,1.54-.96.18-.15.37-.3.54-.47.38-.35.71-.74,1.04-1.12.03-.04.05-.07.08-.11.16-.24.31-.49.46-.74.17-.28.32-.58.47-.87,0-.01,0-.02,0-.03,0-.07.01-.14.03-.2v-.02s.03-.11.05-.17h0s.01-.04.02-.05c.14-.46.41-.97.52-1.37.19-.69.34-1.38.47-2.08.01-.09.03-.18.04-.27h0c-.05-.22.12-1.04.13-1.18.15-1.68.18-3.37.13-5.05-.03-1.08-.14-2.13-.23-3.2ZM195.06,214.02c-3.71,1.22-7.6,1.89-11.5,1.37-5.66-.76-10.12-4.29-13.06-9.09-1.32-2.15-.4-4.86,1.61-6.16,2.07-1.34,4.93-.39,6.16,1.61.2.32.39.63.61.94.05.08.32.42.41.55.03.03.05.06.07.08.18.21.37.42.57.62.34.36.71.68,1.08,1.01.2.13.39.26.59.39.37.23.76.42,1.15.62.16.06.33.12.49.17.42.13.84.24,1.27.33.12.03.25.04.37.06.78.06,1.55.09,2.33.04.31-.02.62-.05.93-.08.12-.02.24-.04.37-.06,1.41-.26,2.8-.65,4.16-1.1,2.39-.79,4.81.92,5.54,3.14.77,2.39-.91,4.8-3.14,5.54Z"/>
      <path class="cls-1" d="M184.59,206.53c-.19-.02-.27-.02,0,0h0Z"/>
    </g>
  </g>
</svg>